<?xml version="1.0" standalone="no"?>
<!DOCTYPE svg PUBLIC "-//W3C//DTD SVG 20010904//EN"
 "http://www.w3.org/TR/2001/REC-SVG-20010904/DTD/svg10.dtd">
<svg version="1.0" xmlns="http://www.w3.org/2000/svg"
 width="39.000000pt" height="54.000000pt" viewBox="0 0 39.000000 54.000000"
 preserveAspectRatio="xMidYMid meet">

<g transform="translate(0.000000,54.000000) scale(0.100000,-0.100000)"
fill="#000000" stroke="none">
<path d="M47 533 c-12 -11 -7 -72 8 -109 13 -32 13 -37 0 -51 -8 -8 -15 -23
-15 -34 0 -12 -7 -19 -20 -19 -21 0 -28 -26 -9 -32 9 -3 8 -14 -1 -40 -11 -29
-11 -43 -2 -63 7 -15 8 -25 2 -25 -6 0 -10 -8 -10 -18 0 -20 29 -52 48 -52 7
0 9 -10 6 -27 -7 -34 16 -69 40 -60 10 4 16 18 16 41 0 41 14 53 38 34 15 -12
16 -11 4 4 -10 12 -10 18 -1 24 7 4 18 -1 26 -11 24 -33 14 -6 -13 35 -24 37
-25 60 -3 60 6 0 7 -4 4 -10 -4 -6 1 -7 11 -3 12 4 15 3 10 -5 -4 -7 -2 -12 3
-12 6 0 11 8 11 18 1 13 4 11 14 -7 14 -25 11 -55 -4 -46 -5 3 -12 0 -16 -6
-4 -8 -3 -9 4 -5 7 4 12 1 13 -6 0 -7 5 -3 11 9 6 12 27 26 52 33 40 11 42 14
41 45 0 27 2 32 12 23 10 -8 13 -7 13 5 0 8 -7 20 -15 27 -11 9 -13 16 -5 24
16 16 12 26 -10 26 -29 0 -24 20 15 59 67 67 85 171 29 171 -29 0 -75 -22 -93
-44 -7 -8 -20 -12 -29 -9 -14 5 -15 3 -5 -7 18 -19 -12 -50 -47 -50 -46 0 -46
36 0 53 13 5 13 6 -1 6 -8 1 -20 -4 -25 -9 -7 -7 -21 3 -43 30 -30 38 -50 48
-64 33z m-7 -233 c0 -5 -4 -10 -9 -10 -6 0 -13 5 -16 10 -3 6 1 10 9 10 9 0
16 -4 16 -10z m60 -25 c-6 -8 -9 -19 -5 -25 3 -5 1 -10 -4 -10 -15 0 -14 23 1
38 17 17 23 15 8 -3z m204 0 c-21 -16 -38 -20 -30 -6 4 5 0 12 -6 14 -7 3 2 6
21 6 33 1 34 0 15 -14z m-123 -4 c-8 -5 -11 -16 -8 -25 8 -21 27 -21 27 1 0
14 2 15 13 4 10 -10 9 -15 -4 -24 -9 -7 -17 -15 -17 -19 -1 -5 -4 -8 -7 -9 -8
-1 -69 13 -77 18 -10 5 23 43 47 53 27 12 44 12 26 1z m-42 -123 c10 -16 7
-18 -22 -18 -18 0 -41 6 -51 13 -18 13 -18 14 -1 35 17 19 19 20 41 4 12 -9
27 -25 33 -34z m-86 -14 c9 -4 17 -10 17 -15 0 -16 -25 -9 -44 12 -10 12 -12
19 -4 15 7 -3 21 -9 31 -12z m74 -20 c-3 -3 -12 -4 -19 -1 -8 3 -5 6 6 6 11 1
17 -2 13 -5z m-40 -81 c-4 -17 -4 -17 -12 0 -4 9 -4 25 0 35 8 16 8 16 12 0 3
-10 3 -26 0 -35z"/>
<path d="M177 53 c-4 -3 -7 -15 -7 -25 0 -22 -17 -24 -23 -3 -4 11 -4 10 -3
-2 2 -27 29 -22 36 7 6 24 6 24 18 5 6 -11 12 -15 12 -9 0 15 -25 36 -33 27z"/>
</g>
</svg>
