<?xml version="1.0" standalone="no"?>
<!DOCTYPE svg PUBLIC "-//W3C//DTD SVG 20010904//EN"
 "http://www.w3.org/TR/2001/REC-SVG-20010904/DTD/svg10.dtd">
<svg version="1.0" xmlns="http://www.w3.org/2000/svg"
 width="20.000000pt" height="27.000000pt" viewBox="0 0 20.000000 27.000000"
 preserveAspectRatio="xMidYMid meet">

<g transform="translate(0.000000,27.000000) scale(0.100000,-0.100000)"
fill="#000000" stroke="none">
<path d="M20 256 c0 -8 4 -25 8 -38 8 -21 -8 -75 -19 -64 -2 2 -4 -18 -4 -45
0 -27 5 -53 11 -57 7 -4 13 -15 15 -25 5 -25 23 -23 31 5 3 13 7 19 7 13 1 -5
5 -3 10 5 15 22 3 30 -26 19 -19 -7 -29 -6 -37 2 -8 9 -8 10 0 6 7 -4 14 -1
17 7 4 9 14 12 26 9 12 -3 21 -1 21 6 0 6 -6 11 -14 11 -21 0 -30 20 -17 33 9
9 10 7 5 -8 -7 -18 -6 -19 11 -5 14 11 19 12 22 2 3 -6 9 -10 14 -6 5 3 9 1 9
-5 0 -5 -5 -13 -10 -16 -6 -3 -10 -12 -10 -18 0 -8 3 -8 9 1 7 11 9 11 14 -2
4 -9 1 -16 -5 -16 -6 0 -9 -2 -6 -5 7 -7 58 18 59 30 7 48 6 55 -6 45 -21 -18
-24 1 -4 24 30 30 51 76 45 92 -9 23 -36 16 -66 -16 -15 -16 -33 -30 -39 -30
-6 0 -17 14 -26 30 -16 31 -45 41 -45 16z m27 -238 c-3 -8 -6 -5 -6 6 -1 11 2
17 5 13 3 -3 4 -12 1 -19z"/>
</g>
</svg>
