<?xml version="1.0" standalone="no"?>
<!DOCTYPE svg PUBLIC "-//W3C//DTD SVG 20010904//EN"
 "http://www.w3.org/TR/2001/REC-SVG-20010904/DTD/svg10.dtd">
<svg version="1.0" xmlns="http://www.w3.org/2000/svg"
 width="86.000000pt" height="121.000000pt" viewBox="0 0 86.000000 121.000000"
 preserveAspectRatio="xMidYMid meet">

<g transform="translate(0.000000,121.000000) scale(0.100000,-0.100000)"
fill="#000000" stroke="none">
<path d="M166 1128 c-22 -31 -14 -130 18 -209 31 -78 31 -74 7 -98 -11 -11
-25 -39 -32 -63 -15 -54 -17 -56 -54 -61 -41 -5 -44 -33 -7 -54 l30 -17 -26
-44 c-32 -56 -34 -121 -5 -160 l21 -28 -22 -10 c-46 -20 6 -122 71 -139 22 -5
24 -9 18 -50 -9 -59 9 -113 41 -121 51 -13 74 20 74 107 0 43 3 51 25 61 40
18 54 -9 42 -84 -7 -51 -6 -63 7 -77 25 -25 50 -3 54 48 2 22 7 41 11 41 11 0
36 -31 44 -52 8 -22 36 -23 44 -2 3 8 -4 35 -16 58 -25 51 -24 47 -9 83 6 15
12 30 13 33 7 31 39 53 110 76 91 30 94 32 77 43 -10 6 -9 15 2 42 9 23 11 40
5 50 -18 29 -8 33 16 7 30 -35 35 -35 35 1 0 28 -30 63 -63 74 -7 2 -2 16 16
36 37 44 34 54 -12 49 -36 -3 -41 -1 -46 21 -6 23 14 51 35 51 11 0 94 110
124 165 20 36 30 69 33 115 6 79 -6 99 -63 107 -48 6 -116 -27 -179 -88 -37
-36 -42 -38 -57 -23 -21 21 -97 20 -142 -1 -20 -10 -36 -21 -36 -26 0 -21 -18
-6 -45 36 -33 53 -108 125 -129 125 -8 0 -22 -10 -30 -22z m363 -132 l22 -23
-29 -31 c-47 -51 -145 -57 -154 -9 -7 36 1 48 46 68 55 25 88 24 115 -5z m201
-44 c0 -5 -7 -9 -15 -9 -8 0 -12 4 -9 9 3 4 9 8 15 8 5 0 9 -4 9 -8z m-580
-287 c0 -14 -6 -25 -12 -25 -14 1 -48 24 -48 33 0 6 24 14 48 16 6 0 12 -10
12 -24z m570 -13 c0 -4 -19 -22 -41 -40 -41 -31 -66 -34 -55 -6 3 8 -1 14 -9
14 -8 0 -15 7 -15 15 0 10 16 15 58 18 31 2 58 4 60 5 1 1 2 -2 2 -6z m-445
-42 c-15 -17 -16 -23 -5 -50 16 -38 41 -36 55 5 8 25 16 30 44 32 18 1 41 9
50 18 20 17 31 19 31 5 0 -5 -7 -10 -15 -10 -16 0 -20 -35 -9 -64 11 -28 41
-18 53 17 9 25 14 29 21 17 8 -13 10 -12 10 4 0 11 3 17 6 13 12 -12 -8 -67
-24 -67 -14 0 -15 -2 -3 -9 11 -7 2 -13 -35 -24 -49 -15 -49 -16 -14 -17 29
-1 32 -3 15 -10 -27 -12 -98 -12 -91 -1 4 5 -8 12 -26 16 -42 9 -80 33 -73 45
4 6 -1 10 -9 10 -26 0 -21 64 7 83 29 19 35 13 12 -13z m50 -220 c59 -56 55
-70 -16 -70 -43 0 -98 22 -137 55 -2 2 14 21 35 43 l38 40 35 -29 c19 -17 40
-34 45 -39z m135 50 c0 -11 -7 -23 -16 -27 -17 -6 -52 22 -40 34 4 4 10 3 14
-2 12 -16 32 -16 26 0 -4 8 -1 15 5 15 6 0 11 -9 11 -20z m-55 -32 c8 -18 14
-27 15 -19 0 11 4 11 19 -3 17 -16 19 -16 26 1 5 10 7 26 6 37 -2 11 2 17 11
14 7 -3 13 -14 12 -26 0 -11 5 -18 12 -15 15 6 25 -33 14 -61 -10 -29 -85 -34
-113 -8 -32 29 -58 87 -44 101 18 18 27 13 42 -21z m-275 -47 c0 -5 -7 -11
-15 -15 -15 -5 -20 5 -8 17 9 10 23 9 23 -2z m56 -36 c38 -16 42 -38 7 -43
-25 -4 -69 31 -59 46 9 15 9 15 52 -3z m152 -30 c11 -11 -6 -15 -36 -9 -18 4
-32 11 -32 17 0 9 58 3 68 -8z m122 -5 c0 -5 7 -10 16 -10 9 0 12 5 8 12 -4 7
-3 8 4 4 9 -5 8 -15 -1 -39 -12 -28 -11 -37 10 -80 22 -46 23 -67 2 -67 -5 0
-9 5 -9 11 0 14 -39 69 -49 69 -12 0 -31 -48 -31 -80 0 -20 -5 -30 -14 -30
-24 0 -27 16 -17 81 9 54 8 66 -6 81 -16 17 -16 20 0 35 16 16 19 16 47 -5 35
-26 41 -19 8 9 l-23 18 28 1 c15 0 27 -4 27 -10z m-202 -131 c-2 -31 -7 -44
-18 -44 -19 0 -26 70 -9 91 19 23 31 2 27 -47z"/>
</g>
</svg>
